<?xml version="1.0" encoding="UTF-8" standalone="no"?><!-- Generator: Gravit.io --><svg xmlns="http://www.w3.org/2000/svg" xmlns:xlink="http://www.w3.org/1999/xlink" style="isolation:isolate" viewBox="1189.218 381.308 5.918 21.701" width="5.918pt" height="21.701pt"><path d=" M 1192.177 395.117 C 1193.804 395.117 1195.136 393.786 1195.136 392.158 C 1195.136 390.531 1193.804 389.199 1192.177 389.199 C 1190.549 389.199 1189.218 390.531 1189.218 392.158 C 1189.218 393.786 1190.549 395.117 1192.177 395.117 Z  M 1192.177 403.008 C 1193.804 403.008 1195.136 401.677 1195.136 400.049 C 1195.136 398.422 1193.804 397.09 1192.177 397.09 C 1190.549 397.09 1189.218 398.422 1189.218 400.049 C 1189.218 401.677 1190.549 403.008 1192.177 403.008 Z  M 1192.177 387.226 C 1193.804 387.226 1195.136 385.895 1195.136 384.267 C 1195.136 382.64 1193.804 381.308 1192.177 381.308 C 1190.549 381.308 1189.218 382.64 1189.218 384.267 C 1189.218 385.895 1190.549 387.226 1192.177 387.226 Z " fill="rgb(255,255,255)"/></svg>